<svg xmlns="http://www.w3.org/2000/svg" xmlns:xlink="http://www.w3.org/1999/xlink" width="500" zoomAndPan="magnify" viewBox="0 0 375 374.999991" height="500" preserveAspectRatio="xMidYMid meet" version="1.0"><defs><clipPath id="id1"><path d="M 22.152344 1.527344 L 143 1.527344 L 143 123 L 22.152344 123 Z M 22.152344 1.527344 " clip-rule="nonzero"/></clipPath><clipPath id="id2"><path d="M 248 220 L 352.902344 220 L 352.902344 324 L 248 324 Z M 248 220 " clip-rule="nonzero"/></clipPath></defs><g clip-path="url(#id1)"><path fill="#ffbd59" d="M 82.40625 122.875 C 115.742188 122.875 142.867188 95.75 142.867188 62.414062 C 142.867188 29.078125 115.742188 1.953125 82.40625 1.953125 C 49.066406 1.953125 21.945312 29.078125 21.945312 62.414062 C 21.945312 95.75 49.066406 122.875 82.40625 122.875 Z M 82.40625 18.636719 C 106.542969 18.636719 126.183594 38.273438 126.183594 62.414062 C 126.183594 86.550781 106.546875 106.191406 82.40625 106.191406 C 58.261719 106.191406 38.628906 86.554688 38.628906 62.414062 C 38.628906 38.277344 58.269531 18.636719 82.40625 18.636719 Z M 82.40625 18.636719 " fill-opacity="1" fill-rule="nonzero"/></g><g clip-path="url(#id2)"><path fill="#ffbd59" d="M 300.808594 220.214844 C 272.199219 220.214844 248.921875 243.492188 248.921875 272.101562 C 248.921875 300.707031 272.199219 323.980469 300.808594 323.980469 C 329.414062 323.980469 352.695312 300.707031 352.695312 272.101562 C 352.695312 243.492188 329.414062 220.214844 300.808594 220.214844 Z M 300.808594 307.300781 C 281.398438 307.300781 265.605469 291.511719 265.605469 272.105469 C 265.605469 252.695312 281.398438 236.902344 300.808594 236.902344 C 320.21875 236.902344 336.011719 252.695312 336.011719 272.105469 C 336.011719 291.507812 320.21875 307.300781 300.808594 307.300781 Z M 300.808594 307.300781 " fill-opacity="1" fill-rule="nonzero"/></g><path fill="#00c2cb" d="M 241.242188 87.636719 C 256.671875 87.636719 269.226562 75.082031 269.226562 59.652344 C 269.226562 44.226562 256.671875 31.671875 241.242188 31.671875 C 225.816406 31.671875 213.261719 44.226562 213.261719 59.652344 C 213.261719 75.082031 225.8125 87.636719 241.242188 87.636719 Z M 241.242188 48.355469 C 247.476562 48.355469 252.542969 53.421875 252.542969 59.652344 C 252.542969 65.886719 247.476562 70.953125 241.242188 70.953125 C 235.011719 70.953125 229.945312 65.886719 229.945312 59.652344 C 229.945312 53.421875 235.011719 48.355469 241.242188 48.355469 Z M 241.242188 48.355469 " fill-opacity="1" fill-rule="nonzero"/><path fill="#00c2cb" d="M 95.121094 208.921875 C 95.121094 193.496094 82.566406 180.945312 67.140625 180.945312 C 51.710938 180.945312 39.15625 193.496094 39.15625 208.921875 C 39.15625 224.351562 51.710938 236.902344 67.140625 236.902344 C 82.566406 236.902344 95.121094 224.351562 95.121094 208.921875 Z M 55.839844 208.921875 C 55.839844 202.695312 60.90625 197.625 67.140625 197.625 C 73.371094 197.625 78.4375 202.695312 78.4375 208.921875 C 78.4375 215.152344 73.371094 220.21875 67.140625 220.21875 C 60.90625 220.21875 55.839844 215.152344 55.839844 208.921875 Z M 55.839844 208.921875 " fill-opacity="1" fill-rule="nonzero"/><path fill="#00c2cb" d="M 82.40625 316.714844 C 66.976562 316.714844 54.421875 329.269531 54.421875 344.699219 C 54.421875 360.125 66.976562 372.679688 82.40625 372.679688 C 97.832031 372.679688 110.386719 360.125 110.386719 344.699219 C 110.386719 329.269531 97.832031 316.714844 82.40625 316.714844 Z M 82.40625 355.996094 C 76.171875 355.996094 71.105469 350.929688 71.105469 344.699219 C 71.105469 338.464844 76.171875 333.398438 82.40625 333.398438 C 88.636719 333.398438 93.703125 338.464844 93.703125 344.699219 C 93.703125 350.929688 88.636719 355.996094 82.40625 355.996094 Z M 82.40625 355.996094 " fill-opacity="1" fill-rule="nonzero"/><path fill="#d9d9d9" d="M 256.824219 233.878906 C 259.765625 230.332031 259.269531 225.074219 255.722656 222.140625 L 230.386719 201.160156 C 232.851562 196.144531 234.273438 190.523438 234.273438 184.570312 C 234.273438 171.066406 227.136719 159.234375 216.464844 152.546875 L 233.832031 101.117188 C 235.308594 96.753906 232.964844 92.019531 228.597656 90.542969 C 224.226562 89.070312 219.496094 91.410156 218.027344 95.777344 L 200.722656 147.023438 C 199.328125 146.863281 197.914062 146.769531 196.472656 146.769531 C 189.355469 146.769531 182.710938 148.785156 177.015625 152.21875 L 145.242188 113.234375 C 142.328125 109.664062 137.078125 109.128906 133.507812 112.039062 C 129.9375 114.949219 129.402344 120.207031 132.308594 123.777344 L 164.921875 163.792969 C 161.308594 169.257812 159.113281 175.710938 158.765625 182.648438 L 106.558594 194.164062 C 102.058594 195.160156 99.21875 199.613281 100.210938 204.109375 C 101.070312 208.003906 104.519531 210.652344 108.347656 210.652344 C 108.945312 210.652344 109.546875 210.589844 110.152344 210.457031 L 161.589844 199.113281 C 163.886719 204.601562 167.453125 209.421875 171.90625 213.242188 L 101.710938 305.785156 C 98.925781 309.453125 99.644531 314.6875 103.316406 317.476562 C 104.824219 318.613281 106.59375 319.167969 108.351562 319.167969 C 110.871094 319.167969 113.363281 318.035156 115.003906 315.871094 L 186.894531 221.097656 C 189.957031 221.902344 193.15625 222.371094 196.472656 222.371094 C 205.335938 222.371094 213.476562 219.285156 219.929688 214.160156 L 245.085938 234.988281 C 246.640625 236.28125 248.527344 236.90625 250.398438 236.90625 C 252.796875 236.902344 255.179688 235.875 256.824219 233.878906 Z M 196.472656 205.683594 C 184.828125 205.683594 175.355469 196.214844 175.355469 184.570312 C 175.355469 172.925781 184.828125 163.453125 196.472656 163.453125 C 208.113281 163.453125 217.589844 172.925781 217.589844 184.570312 C 217.589844 196.214844 208.113281 205.683594 196.472656 205.683594 Z M 196.472656 205.683594 " fill-opacity="1" fill-rule="nonzero"/></svg>